HIERARCHY
ROOT Root
{
  OFFSET 0.0 0.0 0.0
  CHANNELS 6 Xposition Yposition Zposition Zrotation Yrotation Xrotation
  JOINT Hips
  {
    OFFSET 0.0 100.0 0.0
    CHANNELS 6 Xposition Yposition Zposition Zrotation Yrotation Xrotation
    JOINT Spine1
    {
      OFFSET 5.003913 -0.037094 -0.013727
      CHANNELS 3 Zrotation Yrotation Xrotation
      JOINT Spine2
      {
        OFFSET 7.125363 -1e-06 0.0
        CHANNELS 3 Zrotation Yrotation Xrotation
        JOINT Chest
        {
          OFFSET 7.594027 1e-06 0.0
          CHANNELS 3 Zrotation Yrotation Xrotation
          JOINT Neck1
          {
            OFFSET 26.313086 -0.460272 -0.181672
            CHANNELS 3 Zrotation Yrotation Xrotation
            JOINT Neck2
            {
              OFFSET 8.045911 0.0 0.0
              CHANNELS 3 Zrotation Yrotation Xrotation
              JOINT Head
              {
                OFFSET 6.432774 0.0 0.0
                CHANNELS 3 Zrotation Yrotation Xrotation
                JOINT HeadEnd
                {
                  OFFSET 16.169773 0.06451 0.00362
                  CHANNELS 3 Zrotation Yrotation Xrotation
                }
                JOINT Jaw
                {
                  OFFSET 0.108741 3.12938 0.002639
                  CHANNELS 3 Zrotation Yrotation Xrotation
                }
                JOINT LeftEye
                {
                  OFFSET 4.45173 8.166359 3.206392
                  CHANNELS 3 Zrotation Yrotation Xrotation
                }
                JOINT RightEye
                {
                  OFFSET 4.436895 8.135758 -3.222429
                  CHANNELS 3 Zrotation Yrotation Xrotation
                }
              }
            }
          }
          JOINT LeftShoulder
          {
            OFFSET 23.218927 5.195579 1.621656
            CHANNELS 3 Zrotation Yrotation Xrotation
            JOINT LeftArm
            {
              OFFSET 15.902118 2e-06 -2e-06
              CHANNELS 3 Zrotation Yrotation Xrotation
              JOINT LeftForeArm
              {
                OFFSET 28.739307 0.0 -1e-06
                CHANNELS 3 Zrotation Yrotation Xrotation
                JOINT LeftHand
                {
                  OFFSET 27.093981 -4e-06 0.0
                  CHANNELS 3 Zrotation Yrotation Xrotation
                  JOINT LeftHandThumb1
                  {
                    OFFSET 2.276781 3.380274 0.83384
                    CHANNELS 3 Zrotation Yrotation Xrotation
                    JOINT LeftHandThumb2
                    {
                      OFFSET 4.705309 -1e-06 -1e-06
                      CHANNELS 3 Zrotation Yrotation Xrotation
                      JOINT LeftHandThumb3
                      {
                        OFFSET 2.798515 0.0 3e-06
                        CHANNELS 3 Zrotation Yrotation Xrotation
                        JOINT LeftHandThumbEnd
                        {
                          OFFSET 3.180793 4e-06 -4e-06
                          CHANNELS 3 Zrotation Yrotation Xrotation
                        }
                      }
                    }
                  }
                  JOINT LeftHandIndex1
                  {
                    OFFSET 3.247786 2.352677 0.137192
                    CHANNELS 3 Zrotation Yrotation Xrotation
                    JOINT LeftHandIndex2
                    {
                      OFFSET 6.367095 1e-06 0.0
                      CHANNELS 3 Zrotation Yrotation Xrotation
                      JOINT LeftHandIndex3
                      {
                        OFFSET 3.662364 0.0 0.0
                        CHANNELS 3 Zrotation Yrotation Xrotation
                        JOINT LeftHandIndex4
                        {
                          OFFSET 2.329242 4e-06 -4e-06
                          CHANNELS 3 Zrotation Yrotation Xrotation
                          JOINT LeftHandIndexEnd
                          {
                            OFFSET 2.767823 1e-06 0.0
                            CHANNELS 3 Zrotation Yrotation Xrotation
                          }
                        }
                      }
                    }
                  }
                  JOINT LeftHandMiddle1
                  {
                    OFFSET 3.163612 0.945023 -0.406112
                    CHANNELS 3 Zrotation Yrotation Xrotation
                    JOINT LeftHandMiddle2
                    {
                      OFFSET 6.276789 3e-06 0.0
                      CHANNELS 3 Zrotation Yrotation Xrotation
                      JOINT LeftHandMiddle3
                      {
                        OFFSET 4.35652 -1e-06 4e-06
                        CHANNELS 3 Zrotation Yrotation Xrotation
                        JOINT LeftHandMiddle4
                        {
                          OFFSET 2.996877 0.0 8e-06
                          CHANNELS 3 Zrotation Yrotation Xrotation
                          JOINT LeftHandMiddleEnd
                          {
                            OFFSET 2.323256 3e-06 -4e-06
                            CHANNELS 3 Zrotation Yrotation Xrotation
                          }
                        }
                      }
                    }
                  }
                  JOINT LeftHandRing1
                  {
                    OFFSET 2.882606 -0.309162 0.107445
                    CHANNELS 3 Zrotation Yrotation Xrotation
                    JOINT LeftHandRing2
                    {
                      OFFSET 6.033198 0.0 4e-06
                      CHANNELS 3 Zrotation Yrotation Xrotation
                      JOINT LeftHandRing3
                      {
                        OFFSET 4.350578 3e-06 0.0
                        CHANNELS 3 Zrotation Yrotation Xrotation
                        JOINT LeftHandRing4
                        {
                          OFFSET 2.651321 2e-06 -7e-06
                          CHANNELS 3 Zrotation Yrotation Xrotation
                          JOINT LeftHandRingEnd
                          {
                            OFFSET 1.937663 1e-06 -4e-06
                            CHANNELS 3 Zrotation Yrotation Xrotation
                          }
                        }
                      }
                    }
                  }
                  JOINT LeftHandPinky1
                  {
                    OFFSET 2.865315 -1.525436 0.575687
                    CHANNELS 3 Zrotation Yrotation Xrotation
                    JOINT LeftHandPinky2
                    {
                      OFFSET 5.54936 1e-06 -8e-06
                      CHANNELS 3 Zrotation Yrotation Xrotation
                      JOINT LeftHandPinky3
                      {
                        OFFSET 3.070974 0.0 -4e-06
                        CHANNELS 3 Zrotation Yrotation Xrotation
                        JOINT LeftHandPinky4
                        {
                          OFFSET 1.549672 1e-06 0.0
                          CHANNELS 3 Zrotation Yrotation Xrotation
                          JOINT LeftHandPinkyEnd
                          {
                            OFFSET 1.952123 0.0 0.0
                            CHANNELS 3 Zrotation Yrotation Xrotation
                          }
                        }
                      }
                    }
                  }
                }
              }
            }
          }
          JOINT RightShoulder
          {
            OFFSET 23.161716 5.296122 -1.380114
            CHANNELS 3 Zrotation Yrotation Xrotation
            JOINT RightArm
            {
              OFFSET -16.027195 -2e-06 1.1e-05
              CHANNELS 3 Zrotation Yrotation Xrotation
              JOINT RightForeArm
              {
                OFFSET -28.736639 4e-06 2e-06
                CHANNELS 3 Zrotation Yrotation Xrotation
                JOINT RightHand
                {
                  OFFSET -27.133619 6e-06 0.0
                  CHANNELS 3 Zrotation Yrotation Xrotation
                  JOINT RightHandThumb1
                  {
                    OFFSET -2.274328 -3.351035 -0.83067
                    CHANNELS 3 Zrotation Yrotation Xrotation
                    JOINT RightHandThumb2
                    {
                      OFFSET -4.703594 -3e-06 2e-06
                      CHANNELS 3 Zrotation Yrotation Xrotation
                      JOINT RightHandThumb3
                      {
                        OFFSET -2.794935 -4e-06 -3e-06
                        CHANNELS 3 Zrotation Yrotation Xrotation
                        JOINT RightHandThumbEnd
                        {
                          OFFSET -3.183852 4e-06 1e-06
                          CHANNELS 3 Zrotation Yrotation Xrotation
                        }
                      }
                    }
                  }
                  JOINT RightHandIndex1
                  {
                    OFFSET -3.253496 -2.33755 -0.127667
                    CHANNELS 3 Zrotation Yrotation Xrotation
                    JOINT RightHandIndex2
                    {
                      OFFSET -6.344434 0.0 0.0
                      CHANNELS 3 Zrotation Yrotation Xrotation
                      JOINT RightHandIndex3
                      {
                        OFFSET -3.654871 0.0 -8e-06
                        CHANNELS 3 Zrotation Yrotation Xrotation
                        JOINT RightHandIndex4
                        {
                          OFFSET -2.327586 -1e-06 0.0
                          CHANNELS 3 Zrotation Yrotation Xrotation
                          JOINT RightHandIndexEnd
                          {
                            OFFSET -2.770001 3e-06 8e-06
                            CHANNELS 3 Zrotation Yrotation Xrotation
                          }
                        }
                      }
                    }
                  }
                  JOINT RightHandMiddle1
                  {
                    OFFSET -3.168223 -0.944764 0.411762
                    CHANNELS 3 Zrotation Yrotation Xrotation
                    JOINT RightHandMiddle2
                    {
                      OFFSET -6.266691 -1e-06 -4e-06
                      CHANNELS 3 Zrotation Yrotation Xrotation
                      JOINT RightHandMiddle3
                      {
                        OFFSET -4.348901 0.0 0.0
                        CHANNELS 3 Zrotation Yrotation Xrotation
                        JOINT RightHandMiddle4
                        {
                          OFFSET -3.00024 2e-06 -4e-06
                          CHANNELS 3 Zrotation Yrotation Xrotation
                          JOINT RightHandMiddleEnd
                          {
                            OFFSET -2.321477 -4e-06 -4e-06
                            CHANNELS 3 Zrotation Yrotation Xrotation
                          }
                        }
                      }
                    }
                  }
                  JOINT RightHandRing1
                  {
                    OFFSET -2.885654 0.293261 -0.119232
                    CHANNELS 3 Zrotation Yrotation Xrotation
                    JOINT RightHandRing2
                    {
                      OFFSET -6.032835 -1e-06 -4e-06
                      CHANNELS 3 Zrotation Yrotation Xrotation
                      JOINT RightHandRing3
                      {
                        OFFSET -4.33881 0.0 -4e-06
                        CHANNELS 3 Zrotation Yrotation Xrotation
                        JOINT RightHandRing4
                        {
                          OFFSET -2.654903 -4e-06 -4e-06
                          CHANNELS 3 Zrotation Yrotation Xrotation
                          JOINT RightHandRingEnd
                          {
                            OFFSET -1.935122 0.0 4e-06
                            CHANNELS 3 Zrotation Yrotation Xrotation
                          }
                        }
                      }
                    }
                  }
                  JOINT RightHandPinky1
                  {
                    OFFSET -2.866241 1.503904 -0.60527
                    CHANNELS 3 Zrotation Yrotation Xrotation
                    JOINT RightHandPinky2
                    {
                      OFFSET -5.553177 -2e-06 0.0
                      CHANNELS 3 Zrotation Yrotation Xrotation
                      JOINT RightHandPinky3
                      {
                        OFFSET -3.062664 -1e-06 -4e-06
                        CHANNELS 3 Zrotation Yrotation Xrotation
                        JOINT RightHandPinky4
                        {
                          OFFSET -1.546529 2e-06 4e-06
                          CHANNELS 3 Zrotation Yrotation Xrotation
                          JOINT RightHandPinkyEnd
                          {
                            OFFSET -1.952341 0.0 -4e-06
                            CHANNELS 3 Zrotation Yrotation Xrotation
                          }
                        }
                      }
                    }
                  }
                }
              }
            }
          }
        }
      }
    }
    JOINT LeftLeg
    {
      OFFSET -8.443107 2.567604 10.043214
      CHANNELS 3 Zrotation Yrotation Xrotation
      JOINT LeftShin
      {
        OFFSET 43.229198 1e-06 -1e-06
        CHANNELS 3 Zrotation Yrotation Xrotation
        JOINT LeftFoot
        {
          OFFSET 42.298611 1e-06 1e-06
          CHANNELS 3 Zrotation Yrotation Xrotation
          JOINT LeftToeBase
          {
            OFFSET 14.165858 1e-06 0.0
            CHANNELS 3 Zrotation Yrotation Xrotation
            JOINT LeftToeEnd
            {
              OFFSET 6.7141 -0.234461 0.0
              CHANNELS 3 Zrotation Yrotation Xrotation
            }
          }
        }
      }
    }
    JOINT RightLeg
    {
      OFFSET -8.303923 2.592729 -10.047278
      CHANNELS 3 Zrotation Yrotation Xrotation
      JOINT RightShin
      {
        OFFSET -43.369682 0.0 1e-06
        CHANNELS 3 Zrotation Yrotation Xrotation
        JOINT RightFoot
        {
          OFFSET -42.260784 4e-06 2e-06
          CHANNELS 3 Zrotation Yrotation Xrotation
          JOINT RightToeBase
          {
            OFFSET -14.222245 -2e-06 -1e-06
            CHANNELS 3 Zrotation Yrotation Xrotation
            JOINT RightToeEnd
            {
              OFFSET -6.660062 0.232574 -2e-06
              CHANNELS 3 Zrotation Yrotation Xrotation
            }
          }
        }
      }
    }
  }
}
MOTION
Frames: 4
Frame Time: 0.03333333333333333
0.0 0.0 0.0 0.0 -0.0 0.0 -9.95337 47.248352 170.379288 84.022644 -50.797764 98.923836 10.389711 1.63909 -0.92478 -4.475191 -0.072877 -2.516961 27.862225 5.55203 -2.228156 20.191748 -3.854284 3.165779 -2.624439 -1.156372 0.662069 -34.218044 -1.990183 1.250149 6e-06 -0.0 -0.0 -0.15396 -0.095707 0.075291 -0.161065 -0.171853 0.137018 -0.147306 -0.02741 0.023788 -14.868153 -66.582336 19.053492 82.493271 -4.755147 -43.529369 14.914347 0.113111 0.145803 29.694159 65.507011 29.804008 17.636629 -26.322721 52.411182 -19.466658 -14.395597 29.410381 -1e-06 -8.77482 -1e-06 16.670076 -18.46718 5.642792 -0.609776 -1.795654 -3.889327 -4.807087 -11.046807 -2.93785 5e-06 -20.976015 0.0 -5.019969 -25.033552 -4.031881 6e-06 -1e-06 2e-06 -10.634535 -5.68697 -3.565587 10.573275 -17.922949 -3.113902 4e-06 -13.821208 1e-06 -0.501775 -31.181498 -4.027016 -11.290602 -59.439003 7.001539 -13.982713 -7.150198 -2.875042 13.77273 -8.401491 -3.21824 0.347736 -34.211544 0.771653 -0.963028 -17.733368 2.621019 -0.0 0.0 -0.0 -17.346416 -20.095213 -4.201783 21.757557 -1.638374 3.866427 2e-06 -6.338822 1e-06 -1.697588 -22.591738 -6.194005 -0.0 -5e-06 -2e-06 -172.003983 -81.768227 2.038349 88.31015 -20.459927 -31.190212 22.784781 0.055277 0.340673 48.604656 74.333069 57.485271 22.182117 -20.375898 49.933319 -16.701817 -16.74353 28.47653 -1e-06 -12.690601 -1e-06 16.550976 -17.933115 2.277048 -0.10592 -1.513856 -4.275883 -5.03904 -5.612875 -2.953556 5e-06 -11.02052 -2e-06 -6.111297 -15.895334 -3.840472 0.0 1e-06 -1e-06 -10.283371 -5.680289 -4.34184 11.028296 -11.302403 -2.372631 -1.384269 -14.238583 -6.320121 -0.625438 -26.924194 -3.827601 -3.909448 -49.002377 -4.583768 -13.708524 -7.363476 -3.720939 18.141151 -14.052739 -3.242676 7e-06 -18.787271 -2e-06 -0.429712 -8.456045 2.555504 1e-06 -1e-06 1e-06 -15.923536 -20.094484 -5.473584 30.419218 -7.190825 1.735927 1e-06 -8.16293 -1e-06 -1.861901 -22.861469 -6.167941 0.0 -3e-06 -2e-06 156.211365 -5.516556 5.458622 77.995712 -1.947885 0.215796 -69.901123 2.860945 21.973679 -49.875553 1.714741 0.802274 -0.999999 -1e-06 -0.0 -65.679893 -4.540768 7.578135 128.176315 0.344392 0.322547 -89.381866 9.229609 9.893671 -46.881294 1.016221 1.304995 -1.000003 0.0 1e-06 
0.0 0.0 0.0 0.0 -0.0 0.0 -10.239633 47.208565 171.548447 83.305588 -51.620247 98.918991 10.2343 1.59763 -0.87477 -4.531861 -0.087486 -2.30204 27.354588 5.510309 -1.915898 19.500517 -3.856536 3.184022 -2.640865 -1.032756 0.58104 -34.504566 -1.848036 1.130592 5e-06 0.0 -0.0 -0.163077 -0.123043 0.090428 -0.108607 -0.196315 0.161745 -0.089124 -0.060184 0.032288 -15.974284 -65.795792 19.882895 83.491783 -5.939297 -43.189983 14.928705 0.052748 0.127973 32.187595 67.242882 31.945976 17.636637 -26.322741 52.411213 -19.466665 -14.395597 29.410395 -1e-06 -8.774821 -2e-06 16.490761 -18.31315 5.729062 -0.609777 -1.795653 -3.889328 -4.807089 -11.046813 -2.937851 3e-06 -20.976019 1e-06 -5.01997 -25.03356 -4.031883 6e-06 -1e-06 -1e-06 -10.634535 -5.686973 -3.565589 10.573275 -17.922953 -3.1139 3e-06 -13.821213 1e-06 -0.501777 -31.181507 -4.027017 -11.187291 -59.291889 6.939018 -13.982716 -7.150199 -2.875044 13.77273 -8.401494 -3.21824 0.347734 -34.211555 0.771655 -0.963029 -17.733368 2.62102 -0.0 -0.0 0.0 -17.346422 -20.095219 -4.201785 21.757559 -1.638378 3.86643 1e-06 -6.338824 1e-06 -1.697589 -22.591742 -6.194007 -0.0 -6e-06 -2e-06 -171.411636 -81.595779 1.474322 87.4646 -21.804129 -31.016556 25.967548 0.213075 0.332625 48.933674 74.008537 59.529873 22.182121 -20.375893 49.933323 -16.701811 -16.743523 28.476526 -1e-06 -12.6906 -3e-06 16.663452 -18.026302 2.203838 -0.105921 -1.513857 -4.27588 -5.03904 -5.612869 -2.953557 4e-06 -11.020519 -1e-06 -6.111295 -15.895329 -3.840472 1e-06 1e-06 -0.0 -10.283369 -5.680288 -4.341839 11.02829 -11.3024 -2.37263 -1.384269 -14.238579 -6.32012 -0.625438 -26.924185 -3.827604 -3.885701 -49.125656 -4.57021 -13.708523 -7.363476 -3.720939 18.141144 -14.052732 -3.242672 5e-06 -18.787266 -3e-06 -0.429712 -8.456043 2.555505 0.0 -1e-06 -0.0 -15.923536 -20.094481 -5.473586 30.419205 -7.190822 1.735931 2e-06 -8.162925 1e-06 -1.861901 -22.861467 -6.167942 -0.0 -4e-06 -0.0 156.759598 -6.485644 4.932427 75.764946 -1.972465 0.346199 -68.329735 2.738433 22.27087 -49.278404 1.722534 0.824754 -0.999998 0.0 -0.0 -65.330597 -3.331846 6.869971 126.658318 0.428952 0.376427 -86.414215 9.203953 10.592212 -46.70776 0.987153 1.262138 -1.000001 -1e-06 -0.0 
0.0 0.0 0.0 0.0 -0.0 0.0 -10.604236 47.257008 172.661621 82.912575 -52.382755 99.38266 9.979307 1.585176 -0.97921 -4.709439 -0.312542 -2.303141 27.077578 5.421217 -1.905022 18.79421 -3.514464 3.242734 -2.691847 -0.696784 0.508435 -34.529591 -1.779983 0.9749 7e-06 0.0 0.0 -0.188741 -0.052421 0.061023 -0.120958 -0.117373 0.128563 -0.103053 0.00173 0.012757 -15.704019 -65.155197 19.43709 83.999252 -6.774516 -42.747478 14.544604 -0.059116 0.113557 33.95166 68.329918 33.18729 17.636627 -26.322735 52.41119 -19.466663 -14.395596 29.410389 -1e-06 -8.774821 -2e-06 16.439888 -18.207077 5.815188 -0.609776 -1.795653 -3.889326 -4.80709 -11.046814 -2.93785 3e-06 -20.976019 2e-06 -5.01997 -25.03356 -4.03188 6e-06 -1e-06 -1e-06 -10.634535 -5.686971 -3.565588 10.573275 -17.922958 -3.1139 3e-06 -13.821209 1e-06 -0.501779 -31.181507 -4.027015 -10.904635 -59.269527 6.880881 -13.982712 -7.150198 -2.875041 13.772728 -8.401496 -3.218241 0.347733 -34.211555 0.771655 -0.963029 -17.733372 2.621019 -0.0 -0.0 0.0 -17.346418 -20.095221 -4.201782 21.757557 -1.638376 3.866429 1e-06 -6.338823 1e-06 -1.697589 -22.591749 -6.194006 0.0 -5e-06 -2e-06 -173.897934 -81.73143 4.115447 86.550507 -22.695711 -31.766047 30.464239 0.115548 0.239872 50.836876 72.695793 63.809368 22.182117 -20.375893 49.933315 -16.701813 -16.74353 28.476532 -1e-06 -12.690602 -1e-06 16.840937 -18.152946 2.1481 -0.105919 -1.513855 -4.275881 -5.039041 -5.61287 -2.953557 4e-06 -11.020523 -1e-06 -6.111298 -15.895334 -3.84047 1e-06 0.0 -0.0 -10.28337 -5.680287 -4.341839 11.028296 -11.302406 -2.372633 -1.38427 -14.238582 -6.32012 -0.625439 -26.924191 -3.8276 -3.907949 -49.448738 -4.54578 -13.708526 -7.363474 -3.720939 18.141148 -14.052739 -3.242674 6e-06 -18.787271 -3e-06 -0.429711 -8.456045 2.555505 0.0 -1e-06 1e-06 -15.923536 -20.094482 -5.473584 30.41921 -7.190826 1.735924 1e-06 -8.162927 1e-06 -1.861902 -22.861469 -6.167943 -0.0 -3e-06 0.0 156.757217 -6.909788 4.59622 74.097061 -2.204684 0.423436 -66.872292 2.500459 22.708305 -47.371677 1.730385 0.899177 -0.999998 -0.0 -0.0 -64.894447 -2.90077 6.078183 125.143112 0.52094 0.406868 -83.489395 9.486171 11.361597 -46.009247 0.953719 1.240313 -1.000001 0.0 -0.0 
0.0 0.0 0.0 0.0 -0.0 0.0 -11.082489 47.34346 173.560211 82.988861 -52.94017 100.085594 9.83882 1.400621 -1.091678 -4.837344 -0.523951 -2.528646 26.790161 5.090512 -2.296324 18.308512 -2.441149 3.410114 -2.682117 -0.783148 0.292606 -34.393745 -1.76975 0.718204 7e-06 0.0 -0.0 -0.200103 -0.063216 0.061851 -0.064805 -0.129991 0.134861 -0.063288 -0.004233 0.008676 -14.395775 -64.591408 18.016577 84.084877 -7.372535 -42.013496 13.884176 -0.226802 0.073161 35.071774 68.967293 33.493607 17.636627 -26.322733 52.411201 -19.46666 -14.395597 29.410395 0.0 -8.774822 -2e-06 16.281416 -18.13413 5.88828 -0.609776 -1.795654 -3.889329 -4.807089 -11.046814 -2.93785 3e-06 -20.976021 -0.0 -5.019971 -25.03356 -4.031883 6e-06 0.0 1e-06 -10.634535 -5.68697 -3.565588 10.573272 -17.922955 -3.1139 2e-06 -13.821213 1e-06 -0.501778 -31.181511 -4.027017 -11.010316 -59.210117 7.129571 -13.982714 -7.150197 -2.875043 13.772727 -8.401495 -3.218241 0.347732 -34.211555 0.771655 -0.96303 -17.733372 2.621019 -1e-06 -1e-06 -0.0 -17.34642 -20.095217 -4.201785 21.757557 -1.638376 3.866429 1e-06 -6.338823 1e-06 -1.697591 -22.591751 -6.194007 -0.0 -6e-06 -1e-06 179.284866 -81.88311 10.965945 85.851143 -23.247202 -33.120495 36.994846 0.184682 0.07184 54.240803 70.86985 69.878769 22.182114 -20.3759 49.933323 -16.701809 -16.74353 28.476524 -3e-06 -12.690601 -0.0 17.312551 -18.334148 1.952254 -0.105919 -1.513854 -4.275879 -5.03904 -5.61287 -2.953557 3e-06 -11.020524 0.0 -6.111298 -15.895334 -3.840471 0.0 2e-06 -1e-06 -10.283369 -5.680286 -4.341839 11.028292 -11.302406 -2.372632 -1.384268 -14.238581 -6.320122 -0.62544 -26.924191 -3.827601 -3.993188 -49.748459 -4.679455 -13.708526 -7.363474 -3.720938 18.14115 -14.052735 -3.242674 4e-06 -18.787268 -0.0 -0.429713 -8.456043 2.555504 0.0 -0.0 1e-06 -15.923536 -20.094482 -5.473584 30.41921 -7.190823 1.735925 1e-06 -8.162927 2e-06 -1.861903 -22.861467 -6.167938 -0.0 -3e-06 -1e-06 156.349487 -6.891571 4.540421 73.571739 -2.408375 0.516294 -65.379951 2.83326 22.346807 -44.047359 1.784155 1.017356 -0.999999 -0.0 -0.0 -64.462502 -3.020543 5.275217 123.795731 0.558695 0.387174 -79.952789 9.920249 12.641523 -45.658672 0.946892 1.234227 -1.000001 -0.0 -1e-06 
